<svg width="200" height="50" viewBox="0 0 372 45" fill="none" xmlns="http://www.w3.org/2000/svg">
<path d="M26.8359 23.2969L8.20312 29.9766L26.8359 36.6094V42.4453L2.0625 32.7188V27.1875L26.8359 17.4375V23.2969ZM339.211 10.0078H344.391L325.969 49.4531H320.789L339.211 10.0078ZM349.125 23.2969V17.4375L373.898 27.1875V32.7188L349.125 42.4453V36.6094L367.758 29.9766L349.125 23.2969Z" fill="#8F8F8F"/>
<path d="M45.0938 21.375C45.6094 20.2656 46.2656 19.4453 47.0625 18.9141C47.8594 18.3828 48.8359 18.1172 49.9922 18.1172C52.2578 18.1172 53.8203 18.8984 54.6797 20.4609C55.5547 22.0234 55.9922 25.2734 55.9922 30.2109V45H50.3672V28.1484C50.3672 26.1953 50.2188 24.8906 49.9219 24.2344C49.625 23.5781 49.0859 23.25 48.3047 23.25C47.5234 23.25 46.9766 23.5859 46.6641 24.2578C46.3516 24.9297 46.1953 26.2266 46.1953 28.1484V45H40.6406V28.1484C40.6406 26.2266 40.4844 24.9297 40.1719 24.2578C39.8594 23.5859 39.3125 23.25 38.5312 23.25C37.75 23.25 37.2109 23.5781 36.9141 24.2344C36.6172 24.8906 36.4688 26.1953 36.4688 28.1484V45H30.8438V18.75H35.8359V21.4688C36.2266 20.4375 36.8516 19.625 37.7109 19.0312C38.5703 18.4219 39.5312 18.1172 40.5938 18.1172C41.6562 18.1172 42.625 18.4375 43.5 19.0781C44.375 19.7031 44.9062 20.4688 45.0938 21.375ZM63.0234 18.75H76.6172V39.7266H85.1484V45H61.1953V39.7266H69.75V24.0234H63.0234V18.75ZM69.75 5.97656H76.6172V13.9922H69.75V5.97656ZM102.938 21.375C103.453 20.2656 104.109 19.4453 104.906 18.9141C105.703 18.3828 106.68 18.1172 107.836 18.1172C110.102 18.1172 111.664 18.8984 112.523 20.4609C113.398 22.0234 113.836 25.2734 113.836 30.2109V45H108.211V28.1484C108.211 26.1953 108.062 24.8906 107.766 24.2344C107.469 23.5781 106.93 23.25 106.148 23.25C105.367 23.25 104.82 23.5859 104.508 24.2578C104.195 24.9297 104.039 26.2266 104.039 28.1484V45H98.4844V28.1484C98.4844 26.2266 98.3281 24.9297 98.0156 24.2578C97.7031 23.5859 97.1562 23.25 96.375 23.25C95.5938 23.25 95.0547 23.5781 94.7578 24.2344C94.4609 24.8906 94.3125 26.1953 94.3125 28.1484V45H88.6875V18.75H93.6797V21.4688C94.0703 20.4375 94.6953 19.625 95.5547 19.0312C96.4141 18.4219 97.375 18.1172 98.4375 18.1172C99.5 18.1172 100.469 18.4375 101.344 19.0781C102.219 19.7031 102.75 20.4688 102.938 21.375ZM119.438 35.8359V18.75H126.305V34.7812C126.305 36.6719 126.57 38.0234 127.102 38.8359C127.633 39.6484 128.516 40.0547 129.75 40.0547C130.984 40.0547 131.945 39.5078 132.633 38.4141C133.336 37.3203 133.688 35.7891 133.688 33.8203V18.75H140.555V45H133.688V41.1094C133.203 42.5625 132.375 43.6875 131.203 44.4844C130.047 45.2812 128.648 45.6797 127.008 45.6797C124.508 45.6797 122.617 44.8516 121.336 43.1953C120.07 41.5391 119.438 39.0859 119.438 35.8359ZM147 28.0312H171.844V34.3359H147V28.0312ZM189.703 21.375C190.219 20.2656 190.875 19.4453 191.672 18.9141C192.469 18.3828 193.445 18.1172 194.602 18.1172C196.867 18.1172 198.43 18.8984 199.289 20.4609C200.164 22.0234 200.602 25.2734 200.602 30.2109V45H194.977V28.1484C194.977 26.1953 194.828 24.8906 194.531 24.2344C194.234 23.5781 193.695 23.25 192.914 23.25C192.133 23.25 191.586 23.5859 191.273 24.2578C190.961 24.9297 190.805 26.2266 190.805 28.1484V45H185.25V28.1484C185.25 26.2266 185.094 24.9297 184.781 24.2578C184.469 23.5859 183.922 23.25 183.141 23.25C182.359 23.25 181.82 23.5781 181.523 24.2344C181.227 24.8906 181.078 26.1953 181.078 28.1484V45H175.453V18.75H180.445V21.4688C180.836 20.4375 181.461 19.625 182.32 19.0312C183.18 18.4219 184.141 18.1172 185.203 18.1172C186.266 18.1172 187.234 18.4375 188.109 19.0781C188.984 19.7031 189.516 20.4688 189.703 21.375ZM228.281 43.7109C226.688 44.3672 225.062 44.8594 223.406 45.1875C221.75 45.5156 220 45.6797 218.156 45.6797C213.766 45.6797 210.406 44.5078 208.078 42.1641C205.766 39.8047 204.609 36.4141 204.609 31.9922C204.609 27.7109 205.727 24.3281 207.961 21.8438C210.195 19.3594 213.242 18.1172 217.102 18.1172C220.992 18.1172 224.008 19.2734 226.148 21.5859C228.305 23.8828 229.383 27.125 229.383 31.3125V34.1016H211.594C211.609 36.1641 212.219 37.7031 213.422 38.7188C214.625 39.7344 216.422 40.2422 218.812 40.2422C220.391 40.2422 221.945 40.0156 223.477 39.5625C225.008 39.1094 226.609 38.3906 228.281 37.4062V43.7109ZM222.469 28.9453C222.438 27.1328 221.969 25.7656 221.062 24.8438C220.172 23.9062 218.852 23.4375 217.102 23.4375C215.523 23.4375 214.266 23.9219 213.328 24.8906C212.391 25.8438 211.836 27.2031 211.664 28.9688L222.469 28.9453ZM247.547 21.375C248.062 20.2656 248.719 19.4453 249.516 18.9141C250.312 18.3828 251.289 18.1172 252.445 18.1172C254.711 18.1172 256.273 18.8984 257.133 20.4609C258.008 22.0234 258.445 25.2734 258.445 30.2109V45H252.82V28.1484C252.82 26.1953 252.672 24.8906 252.375 24.2344C252.078 23.5781 251.539 23.25 250.758 23.25C249.977 23.25 249.43 23.5859 249.117 24.2578C248.805 24.9297 248.648 26.2266 248.648 28.1484V45H243.094V28.1484C243.094 26.2266 242.938 24.9297 242.625 24.2578C242.312 23.5859 241.766 23.25 240.984 23.25C240.203 23.25 239.664 23.5781 239.367 24.2344C239.07 24.8906 238.922 26.1953 238.922 28.1484V45H233.297V18.75H238.289V21.4688C238.68 20.4375 239.305 19.625 240.164 19.0312C241.023 18.4219 241.984 18.1172 243.047 18.1172C244.109 18.1172 245.078 18.4375 245.953 19.0781C246.828 19.7031 247.359 20.4688 247.547 21.375ZM274.734 23.6953C273.094 23.6953 271.805 24.4219 270.867 25.875C269.93 27.3125 269.461 29.3203 269.461 31.8984C269.461 34.4766 269.93 36.4922 270.867 37.9453C271.805 39.3828 273.094 40.1016 274.734 40.1016C276.391 40.1016 277.688 39.3828 278.625 37.9453C279.562 36.4922 280.031 34.4766 280.031 31.8984C280.031 29.3203 279.562 27.3125 278.625 25.875C277.688 24.4219 276.391 23.6953 274.734 23.6953ZM262.594 31.8984C262.594 27.6641 263.688 24.3125 265.875 21.8438C268.078 19.3594 271.031 18.1172 274.734 18.1172C278.453 18.1172 281.406 19.3594 283.594 21.8438C285.797 24.3125 286.898 27.6641 286.898 31.8984C286.898 36.1328 285.797 39.4922 283.594 41.9766C281.406 44.4453 278.453 45.6797 274.734 45.6797C271.031 45.6797 268.078 44.4453 265.875 41.9766C263.688 39.4922 262.594 36.1328 262.594 31.8984Z" fill="#6B21A8"/>
</svg>
